<?xml version="1.0" encoding="UTF-8"?>
<!DOCTYPE svg PUBLIC "-//W3C//DTD SVG 1.1//EN" "http://www.w3.org/Graphics/SVG/1.1/DTD/svg11.dtd">
<svg xmlns="http://www.w3.org/2000/svg" version="1.1" width="80px" height="80px" style="shape-rendering:geometricPrecision; text-rendering:geometricPrecision; image-rendering:optimizeQuality; fill-rule:evenodd; clip-rule:evenodd" xmlns:xlink="http://www.w3.org/1999/xlink">
<g><path style="opacity:0.978" fill="#ff3d53" d="M 30.5,-0.5 C 36.5,-0.5 42.5,-0.5 48.5,-0.5C 64.5,4.16667 74.8333,14.5 79.5,30.5C 79.5,36.5 79.5,42.5 79.5,48.5C 74.8333,64.5 64.5,74.8333 48.5,79.5C 42.5,79.5 36.5,79.5 30.5,79.5C 14.5,74.8333 4.16667,64.5 -0.5,48.5C -0.5,42.5 -0.5,36.5 -0.5,30.5C 4.16667,14.5 14.5,4.16667 30.5,-0.5 Z M 49.5,15.5 C 50.6946,15.8656 51.3613,16.699 51.5,18C 49.5765,24.8617 47.5765,31.695 45.5,38.5C 49.1224,39.3253 52.789,39.8253 56.5,40C 57.5171,41.0495 57.6838,42.2161 57,43.5C 47.6667,50.1667 38.3333,56.8333 29,63.5C 28.1301,62.8921 27.6301,62.0588 27.5,61C 29.203,55.5572 30.703,50.0572 32,44.5C 35.6586,42.6126 39.4919,41.1126 43.5,40C 36.5,39.6667 29.5,39.3333 22.5,39C 21.4829,37.9505 21.3162,36.7839 22,35.5C 31.3485,28.9701 40.5152,22.3035 49.5,15.5 Z"/></g>
</svg>
